<svg width="1440" height="182" viewBox="0 0 1440 182" fill="none" xmlns="http://www.w3.org/2000/svg">
<path d="M-71 188.8L-19.2667 180.909C32.4667 173.312 135.933 157.087 239.4 129.8C342.867 102.512 446.333 62.6875 549.8 47.2C653.267 31.7125 756.733 39.0875 860.2 59C963.667 78.9125 1067.13 109.887 1170.6 133.709C1274.07 157.087 1377.53 173.312 1429.27 180.909L1481 188.8V236H1429.27C1377.53 236 1274.07 236 1170.6 236C1067.13 236 963.667 236 860.2 236C756.733 236 653.267 236 549.8 236C446.333 236 342.867 236 239.4 236C135.933 236 32.4667 236 -19.2667 236H-71V188.8Z" fill="#0099FF"/>
</svg>
