<svg width="100" height="100" viewBox="0 0 100 100" fill="none" xmlns="http://www.w3.org/2000/svg">
<path d="M91.6667 45.8333H74.2917L87.7917 32.3333L81.9167 26.4166L62.5 45.8333H54.1667V37.5L73.5834 18.0833L67.6667 12.2083L54.1667 25.7083V8.33331H45.8334V25.7083L32.3334 12.2083L26.4167 18.0833L45.8334 37.5V45.8333H37.5L18.0834 26.4166L12.2084 32.3333L25.7084 45.8333H8.33337V54.1666H25.7084L12.2084 67.6666L18.0834 73.5833L37.5 54.1666H45.8334V62.5L26.4167 81.9166L32.3334 87.7916L45.8334 74.2916V91.6667H54.1667V74.2916L67.6667 87.7916L73.5834 81.9166L54.1667 62.5V54.1666H62.5L81.9167 73.5833L87.7917 67.6666L74.2917 54.1666H91.6667V45.8333Z" fill="white"/>
</svg>
